<svg width="35" height="35" viewBox="0 0 35 35" fill="none" xmlns="http://www.w3.org/2000/svg">
<path d="M33.7105 4.05262C34.4215 4.05262 35 3.47409 35 2.76315V1.28946C35 0.578525 34.4215 0 33.7105 0H25.6052C24.8942 0 24.3158 0.578525 24.3158 1.28946V2.76315C24.3158 3.47416 24.8943 4.05262 25.6052 4.05262H25.7895V7.36839H25.2965C25.0893 6.93308 24.6449 6.63154 24.1315 6.63154H22.6579C21.9468 6.63154 21.3684 7.21007 21.3684 7.92101V8.10523H20.4473C19.7363 8.10523 19.1579 8.68376 19.1579 9.3947V10.1315C19.1579 10.8425 19.7364 11.421 20.4473 11.421H21.3684V12.5262H18.0526V11.6052C18.0526 10.4878 17.1436 9.57886 16.0263 9.57886H2.02631C0.908975 9.57893 0 10.4879 0 11.6052V23.3947C0 24.512 0.908975 25.421 2.02631 25.421H16.0263C17.1436 25.421 18.0526 24.512 18.0526 23.3947V22.4736H21.3684V23.5789H20.4473C19.7363 23.5789 19.1579 24.1574 19.1579 24.8683V25.6052C19.1579 26.3162 19.7364 26.8946 20.4473 26.8946H21.3684V27.0789C21.3684 27.7899 21.9469 28.3683 22.6579 28.3683H24.1315C24.6449 28.3683 25.0892 28.0668 25.2965 27.6315H25.7895V30.9472H25.6052C24.8942 30.9472 24.3158 31.5258 24.3158 32.2367V33.7104C24.3158 34.4214 24.8943 34.9999 25.6052 34.9999H33.7105C34.4215 34.9999 34.9999 34.4213 34.9999 33.7104V32.2367C34.9999 31.5257 34.4214 30.9472 33.7105 30.9472H33.5262V27.6315H33.7105C34.4215 27.6315 34.9999 27.0529 34.9999 26.342V8.65792C34.9999 7.94691 34.4214 7.36846 33.7105 7.36846H33.5262V4.05262H33.7105ZM16.9474 23.3948C16.9474 23.9027 16.5342 24.3158 16.0263 24.3158H4.05262V22.4738H16.9474V23.3948ZM16.9474 21.3684H4.05262V19.5263H16.9474V21.3684ZM16.9474 18.4211H4.05262V16.579H16.9474V18.4211ZM16.9474 15.4737H4.05262V15.2895C4.05262 14.9842 3.80516 14.7368 3.5 14.7368C3.19484 14.7368 2.94738 14.9843 2.94738 15.2895V24.3158H2.02631C1.5184 24.3158 1.10523 23.9026 1.10523 23.3947V11.6052C1.10523 11.0973 1.5184 10.6842 2.02631 10.6842H2.94738V13.0789C2.94738 13.3842 3.19484 13.6315 3.5 13.6315H16.9474V15.4737ZM16.9474 12.5263H4.05262V10.6842H16.0263C16.5342 10.6842 16.9474 11.0974 16.9474 11.6053V12.5263ZM21.3684 25.7895H20.4473C20.3458 25.7895 20.2631 25.7068 20.2631 25.6052V24.8684C20.2631 24.7669 20.3457 24.6842 20.4473 24.6842H21.3684V25.7895ZM21.3684 21.3684H18.0526V13.6316H21.3684V21.3684ZM21.3684 10.3158H20.4473C20.3458 10.3158 20.2631 10.2331 20.2631 10.1315V9.3947C20.2631 9.29318 20.3457 9.21047 20.4473 9.21047H21.3684V10.3158ZM33.7105 32.0526C33.812 32.0526 33.8948 32.1353 33.8948 32.2368V33.7105C33.8948 33.812 33.8121 33.8948 33.7105 33.8948H25.6052C25.5037 33.8948 25.421 33.8121 25.421 33.7105V32.2368C25.421 32.1353 25.5037 32.0526 25.6052 32.0526H27.8158C28.121 32.0526 28.3684 31.8052 28.3684 31.5C28.3684 31.1948 28.1209 30.9474 27.8158 30.9474H26.8947V27.6316H32.421V30.9474H30.0262C29.721 30.9474 29.4736 31.1948 29.4736 31.5C29.4736 31.8052 29.7211 32.0526 30.0262 32.0526H33.7105ZM33.7105 8.47369C33.812 8.47369 33.8948 8.55634 33.8948 8.65792V26.3421C33.8948 26.4437 33.8121 26.5264 33.7105 26.5264H25.4211V13.8158C25.4211 13.5105 25.1736 13.2632 24.8685 13.2632C24.5632 13.2632 24.3158 13.5106 24.3158 13.8158V27.0789C24.3158 27.1804 24.2332 27.2632 24.1316 27.2632H22.6579C22.5564 27.2632 22.4737 27.1805 22.4737 27.0789V7.92107C22.4737 7.81956 22.5563 7.73685 22.6579 7.73685H24.1316C24.2331 7.73685 24.3158 7.81949 24.3158 7.92107V11.6053C24.3158 11.9105 24.5633 12.1579 24.8685 12.1579C25.1737 12.1579 25.4211 11.9105 25.4211 11.6053V8.47369H33.7105ZM30.0263 4.05262H32.4211V7.36839H26.8948V4.05262H27.8158C28.1211 4.05262 28.3685 3.80516 28.3685 3.5C28.3685 3.19484 28.121 2.94738 27.8158 2.94738H25.6053C25.5038 2.94738 25.4211 2.86474 25.4211 2.76315V1.28946C25.4211 1.18795 25.5037 1.10523 25.6053 1.10523H33.7105C33.812 1.10523 33.8948 1.18788 33.8948 1.28946V2.76315C33.8948 2.86467 33.8121 2.94738 33.7105 2.94738H30.0263C29.7211 2.94738 29.4737 3.19484 29.4737 3.5C29.4737 3.80516 29.7211 4.05262 30.0263 4.05262Z" fill="black"/>
</svg>
