<svg width="36" height="32" viewBox="0 0 36 32" fill="none" xmlns="http://www.w3.org/2000/svg">
<path d="M34.8001 12.4001H30.6003V9.40027C30.5983 7.74436 29.2564 6.40245 27.6004 6.40041H22.8007V3.93518C23.1335 3.82985 23.4032 3.5837 23.5385 3.2619C23.6738 2.9401 23.6608 2.57512 23.5033 2.26366L22.9033 1.0637C22.7011 0.656753 22.2856 0.399845 21.8312 0.400759H9.3015C8.92394 0.401392 8.5686 0.579132 8.34157 0.880756L7.44162 2.08071C7.1689 2.44435 7.12502 2.93082 7.32828 3.33727C7.53155 3.7438 7.94707 4.00056 8.40155 4.00056V6.40041C3.99622 6.39675 0.337565 9.7992 0.0218796 14.1931C-0.293806 18.5871 2.84098 22.4775 7.20159 23.1036V27.3994H4.83408C4.16271 27.391 3.61128 27.9279 3.60179 28.5993V30.3992C3.61135 31.0706 4.16271 31.6075 4.83408 31.5992H26.9681C27.6395 31.6075 28.1909 31.0707 28.2005 30.3992V28.5993C28.1909 27.9279 27.6395 27.3911 26.9681 27.3994H24.6007V23.1996H27.6005C29.2564 23.1976 30.5983 21.8557 30.6004 20.1997V17.1999H34.8001C35.4629 17.1999 36.0001 16.6627 36.0001 15.9999V13.6001C36 12.9374 35.4628 12.4001 34.8001 12.4001ZM9.30143 1.60072H21.8311L22.4311 2.80068H8.40148L9.30143 1.60072ZM21.6008 4.00063V6.40048H9.60143V4.00063H21.6008ZM27.0005 28.6125L26.9681 30.3991H4.80167L4.83408 28.5992L27.0005 28.6125ZM8.40148 27.3994V23.1996H23.4006V27.3994H8.40148ZM29.4004 20.1997C29.4004 21.1938 28.5945 21.9996 27.6004 21.9996H8.40148C4.42524 21.9996 1.20187 18.7763 1.20187 14.8C1.20187 10.8238 4.42524 7.60044 8.40148 7.60044H26.4005V20.1997C26.4005 20.5311 26.6691 20.7997 27.0004 20.7997C27.3318 20.7997 27.6004 20.5311 27.6004 20.1997V7.60044C28.5944 7.60044 29.4003 8.40624 29.4003 9.40034V20.1997H29.4004ZM34.8001 15.9999H30.6003V13.6001H34.8001V15.9999Z" fill="black"/>
</svg>
