<svg width="39" height="39" viewBox="0 0 39 39" fill="none" xmlns="http://www.w3.org/2000/svg">
<path d="M38.35 28.275H31.2V26.975H34.45C34.809 26.975 35.1 26.6839 35.1 26.325V24.375H37.05C37.409 24.375 37.7 24.0839 37.7 23.725V15.925C37.7 15.566 37.409 15.275 37.05 15.275H35.1V13.325C35.1 12.966 34.809 12.675 34.45 12.675H27.95V11.375H30.55C30.909 11.375 31.2 11.0839 31.2 10.725V8.12498C31.2 7.87869 31.061 7.65334 30.8404 7.54321L29.5404 6.89321C29.4503 6.84814 29.3509 6.82498 29.25 6.82498H27.95V4.87498C27.95 4.51602 27.659 4.22498 27.3 4.22498H23.4C23.041 4.22498 22.75 4.51602 22.75 4.87498V6.82498H21.45C21.3491 6.82498 21.2497 6.84814 21.1596 6.89321L19.8596 7.54321C19.639 7.65334 19.5 7.87869 19.5 8.12498V10.725C19.5 11.0839 19.791 11.375 20.15 11.375H22.75V12.675H18.2C17.9953 12.675 17.8026 12.7715 17.6801 12.9349L15.7301 15.5349C15.6457 15.6476 15.6 15.7844 15.6 15.925V17.225H13V11.375H14.3V10.075H7.8V11.375H9.1V14.625H7.15C6.97766 14.625 6.8123 14.6935 6.69043 14.8154L5.39043 16.1154C5.26855 16.2373 5.2 16.4026 5.2 16.575V17.875H1.3V24.375H2.6V21.775H5.2V23.075C5.2 23.2473 5.26855 23.4127 5.39043 23.5345L6.69043 24.8345C6.8123 24.9564 6.97766 25.025 7.15 25.025H9.1V28.275H0.65C0.29104 28.275 0 28.566 0 28.925V34.125C0 34.4839 0.29104 34.775 0.65 34.775H38.35C38.709 34.775 39 34.4839 39 34.125V28.925C39 28.566 38.709 28.275 38.35 28.275ZM29.9 28.275H28.6V26.975H29.9V28.275ZM23.4 28.275V26.975H27.3V28.275H23.4ZM13 28.275V22.425H15.6V23.725C15.6 23.8656 15.6457 24.0024 15.7301 24.115L17.6801 26.715C17.8026 26.8785 17.9953 26.975 18.2 26.975H19.5V28.275H13ZM20.8 26.975H22.1V28.275H20.8V26.975ZM36.4 16.575V23.075H35.1V16.575H36.4ZM24.05 5.52498H26.65V6.82498H24.05V5.52498ZM20.8 8.52678L21.6033 8.12498H29.0967L29.9 8.52678V10.075H20.8V8.52678ZM24.05 11.375H26.65V12.675H24.05V11.375ZM16.9 16.1414L18.525 13.975H33.8V25.675H18.525L16.9 23.5085V16.1414ZM15.6 18.525V21.125H13V18.525H15.6ZM10.4 11.375H11.7V14.625H10.4V11.375ZM2.6 20.475V19.175H5.2V20.475H2.6ZM6.5 22.8058V16.8441L7.41914 15.925H11.7V23.725H7.41914L6.5 22.8058ZM10.4 25.025H11.7V28.275H10.4V25.025ZM37.7 33.475H1.3V29.575H37.7V33.475Z" fill="black"/>
<path d="M19.5 15.275H31.2V16.575H19.5V15.275Z" fill="black"/>
<path d="M19.5 17.875H31.2V19.175H19.5V17.875Z" fill="black"/>
<path d="M19.5 20.475H31.2V21.775H19.5V20.475Z" fill="black"/>
<path d="M19.5 23.075H31.2V24.375H19.5V23.075Z" fill="black"/>
<path d="M3.90039 30.875H6.50039V32.175H3.90039V30.875Z" fill="black"/>
<path d="M8.4502 30.875H9.75019V32.175H8.4502V30.875Z" fill="black"/>
<path d="M33.7998 30.875H35.0998V32.175H33.7998V30.875Z" fill="black"/>
<path d="M9.09961 17.225H10.3996V18.525H9.09961V17.225Z" fill="black"/>
</svg>
