<svg width="36" height="36" viewBox="0 0 36 36" fill="none" xmlns="http://www.w3.org/2000/svg">
<g clip-path="url(#clip0)">
<path d="M22.8003 20.9998H7.80112C7.46975 20.9998 7.20117 21.2684 7.20117 21.5998C7.20117 21.9311 7.46975 22.1997 7.80112 22.1997H22.8003C23.1316 22.1997 23.4002 21.9311 23.4002 21.5998C23.4002 21.2684 23.1316 20.9998 22.8003 20.9998Z" fill="black"/>
<path d="M22.8003 11.4003H7.80112C7.46975 11.4003 7.20117 11.669 7.20117 12.0003C7.20117 12.3316 7.46975 12.6002 7.80112 12.6002H22.8003C23.1316 12.6002 23.4002 12.3316 23.4002 12.0003C23.4003 11.6689 23.1316 11.4003 22.8003 11.4003Z" fill="black"/>
<path d="M22.8003 17.9999H7.80112C7.46975 17.9999 7.20117 18.2685 7.20117 18.5999C7.20117 18.9312 7.46975 19.1998 7.80112 19.1998H22.8003C23.1316 19.1998 23.4002 18.9312 23.4002 18.5999C23.4002 18.2685 23.1316 17.9999 22.8003 17.9999Z" fill="black"/>
<path d="M22.8003 14.4001H7.80112C7.46975 14.4001 7.20117 14.6687 7.20117 15.0001C7.20117 15.3315 7.46975 15.6 7.80112 15.6H22.8003C23.1316 15.6 23.4002 15.3315 23.4002 15.0001C23.4002 14.6687 23.1316 14.4001 22.8003 14.4001Z" fill="black"/>
<path d="M34.8001 14.4001H30.6003V11.4003C30.5983 9.74436 29.2564 8.40245 27.6004 8.40041H22.8007V5.93518C23.1335 5.82985 23.4032 5.5837 23.5385 5.2619C23.6738 4.9401 23.6608 4.57512 23.5033 4.26366L22.9033 3.0637C22.7011 2.65675 22.2856 2.39985 21.8312 2.40076H9.3015C8.92394 2.40139 8.5686 2.57913 8.34157 2.88076L7.44162 4.08071C7.1689 4.44435 7.12502 4.93082 7.32828 5.33727C7.53155 5.7438 7.94707 6.00056 8.40155 6.00056V8.40041C3.99622 8.39675 0.337565 11.7992 0.0218796 16.1931C-0.293806 20.5871 2.84098 24.4775 7.20159 25.1036V29.3994H4.83408C4.16271 29.391 3.61128 29.9279 3.60179 30.5993V32.3992C3.61135 33.0706 4.16271 33.6075 4.83408 33.5992H26.9681C27.6395 33.6075 28.1909 33.0707 28.2005 32.3992V30.5993C28.1909 29.9279 27.6395 29.3911 26.9681 29.3994H24.6007V25.1996H27.6005C29.2564 25.1976 30.5983 23.8557 30.6004 22.1997V19.1999H34.8001C35.4629 19.1999 36.0001 18.6627 36.0001 17.9999V15.6001C36 14.9374 35.4628 14.4001 34.8001 14.4001ZM9.30143 3.60072H21.8311L22.4311 4.80068H8.40148L9.30143 3.60072ZM21.6008 6.00063V8.40048H9.60143V6.00063H21.6008ZM27.0005 30.6125L26.9681 32.3991H4.80167L4.83408 30.5992L27.0005 30.6125ZM8.40148 29.3994V25.1996H23.4006V29.3994H8.40148ZM29.4004 22.1997C29.4004 23.1938 28.5945 23.9996 27.6004 23.9996H8.40148C4.42524 23.9996 1.20187 20.7763 1.20187 16.8C1.20187 12.8238 4.42524 9.60044 8.40148 9.60044H26.4005V22.1997C26.4005 22.5311 26.6691 22.7997 27.0004 22.7997C27.3318 22.7997 27.6004 22.5311 27.6004 22.1997V9.60044C28.5944 9.60044 29.4003 10.4062 29.4003 11.4003V22.1997H29.4004ZM34.8001 17.9999H30.6003V15.6001H34.8001V17.9999Z" fill="black"/>
<path d="M5.73526 12.8084C5.91757 12.691 6.02233 12.4844 6.00926 12.2679C5.99618 12.0515 5.86737 11.8589 5.67227 11.7643C5.47716 11.6696 5.2462 11.6876 5.0681 11.8113C3.40186 12.9245 2.40137 14.7961 2.40137 16.8001C2.40137 18.8039 3.40186 20.6756 5.0681 21.7888C5.34329 21.9731 5.71579 21.8996 5.90028 21.6244C5.98894 21.4922 6.02135 21.3301 5.99041 21.1738C5.95948 21.0176 5.86772 20.8802 5.73533 20.7916C4.40179 19.9012 3.60104 18.4035 3.60104 16.8001C3.60104 15.1966 4.40179 13.699 5.73526 12.8084Z" fill="black"/>
</g>
<defs>
<clipPath id="clip0">
<rect width="36" height="36" fill="white"/>
</clipPath>
</defs>
</svg>
