<svg width="39" height="31" viewBox="0 0 39 31" fill="none" xmlns="http://www.w3.org/2000/svg">
<path d="M38.35 24.275H31.2V22.975H34.45C34.809 22.975 35.1 22.6839 35.1 22.325V20.375H37.05C37.409 20.375 37.7 20.0839 37.7 19.725V11.925C37.7 11.566 37.409 11.275 37.05 11.275H35.1V9.32498C35.1 8.96602 34.809 8.67498 34.45 8.67498H27.95V7.37498H30.55C30.909 7.37498 31.2 7.08394 31.2 6.72498V4.12498C31.2 3.87869 31.061 3.65334 30.8404 3.54321L29.5404 2.89321C29.4503 2.84814 29.3509 2.82498 29.25 2.82498H27.95V0.874976C27.95 0.516016 27.659 0.224976 27.3 0.224976H23.4C23.041 0.224976 22.75 0.516016 22.75 0.874976V2.82498H21.45C21.3491 2.82498 21.2497 2.84814 21.1596 2.89321L19.8596 3.54321C19.639 3.65334 19.5 3.87869 19.5 4.12498V6.72498C19.5 7.08394 19.791 7.37498 20.15 7.37498H22.75V8.67498H18.2C17.9953 8.67498 17.8026 8.77146 17.6801 8.93491L15.7301 11.5349C15.6457 11.6476 15.6 11.7844 15.6 11.925V13.225H13V7.37498H14.3V6.07498H7.8V7.37498H9.1V10.625H7.15C6.97766 10.625 6.8123 10.6935 6.69043 10.8154L5.39043 12.1154C5.26855 12.2373 5.2 12.4026 5.2 12.575V13.875H1.3V20.375H2.6V17.775H5.2V19.075C5.2 19.2473 5.26855 19.4127 5.39043 19.5345L6.69043 20.8345C6.8123 20.9564 6.97766 21.025 7.15 21.025H9.1V24.275H0.65C0.29104 24.275 0 24.566 0 24.925V30.125C0 30.4839 0.29104 30.775 0.65 30.775H38.35C38.709 30.775 39 30.4839 39 30.125V24.925C39 24.566 38.709 24.275 38.35 24.275ZM29.9 24.275H28.6V22.975H29.9V24.275ZM23.4 24.275V22.975H27.3V24.275H23.4ZM13 24.275V18.425H15.6V19.725C15.6 19.8656 15.6457 20.0024 15.7301 20.115L17.6801 22.715C17.8026 22.8785 17.9953 22.975 18.2 22.975H19.5V24.275H13ZM20.8 22.975H22.1V24.275H20.8V22.975ZM36.4 12.575V19.075H35.1V12.575H36.4ZM24.05 1.52498H26.65V2.82498H24.05V1.52498ZM20.8 4.52678L21.6033 4.12498H29.0967L29.9 4.52678V6.07498H20.8V4.52678ZM24.05 7.37498H26.65V8.67498H24.05V7.37498ZM16.9 12.1414L18.525 9.97498H33.8V21.675H18.525L16.9 19.5085V12.1414ZM15.6 14.525V17.125H13V14.525H15.6ZM10.4 7.37498H11.7V10.625H10.4V7.37498ZM2.6 16.475V15.175H5.2V16.475H2.6ZM6.5 18.8058V12.8441L7.41914 11.925H11.7V19.725H7.41914L6.5 18.8058ZM10.4 21.025H11.7V24.275H10.4V21.025ZM37.7 29.475H1.3V25.575H37.7V29.475Z" fill="black"/>
</svg>
