<svg width="35" height="32" viewBox="0 0 35 32" fill="none" xmlns="http://www.w3.org/2000/svg">
<path d="M27.3475 23.1604C24.9729 23.1604 23.041 25.0923 23.041 27.4669C23.041 29.8415 24.9729 31.7734 27.3475 31.7734C29.7221 31.7734 31.654 29.8415 31.654 27.4669C31.654 25.0923 29.7221 23.1604 27.3475 23.1604ZM27.3475 29.1895C26.3975 29.1895 25.6249 28.4169 25.6249 27.4669C25.6249 26.5169 26.3975 25.7443 27.3475 25.7443C28.2975 25.7443 29.0701 26.5169 29.0701 27.4669C29.0701 28.4169 28.2975 29.1895 27.3475 29.1895Z" fill="black"/>
<path d="M34.2635 6.51611C34.0189 6.20304 33.6438 6.02043 33.2463 6.02043H7.97483L6.81206 1.1554C6.67297 0.574047 6.15314 0.163635 5.5554 0.163635H1.29195C0.578381 0.163568 0 0.741948 0 1.45551C0 2.16908 0.578381 2.74746 1.29195 2.74746H4.53564L8.73447 20.3163C8.87357 20.8981 9.39339 21.3081 9.99113 21.3081H30.1026C30.6965 21.3081 31.2141 20.9032 31.3566 20.327L34.5004 7.62282C34.5955 7.23703 34.5081 6.82918 34.2635 6.51611ZM29.0918 18.7242H11.0109L8.59233 8.60432H31.5956L29.0918 18.7242Z" fill="black"/>
<path d="M11.7147 23.1604C9.34005 23.1604 7.4082 25.0923 7.4082 27.4669C7.4082 29.8415 9.34012 31.7734 11.7147 31.7734C14.0893 31.7734 16.0212 29.8415 16.0212 27.4669C16.0212 25.0923 14.0893 23.1604 11.7147 23.1604ZM11.7147 29.1895C10.7647 29.1895 9.9921 28.4169 9.9921 27.4669C9.9921 26.5169 10.7647 25.7443 11.7147 25.7443C12.6647 25.7443 13.4373 26.5169 13.4373 27.4669C13.4373 28.4169 12.6647 29.1895 11.7147 29.1895Z" fill="black"/>
</svg>
