<svg width="33" height="33" viewBox="0 0 33 33" fill="none" xmlns="http://www.w3.org/2000/svg">
<path d="M19.415 19.415C19.0374 19.8203 18.582 20.1454 18.076 20.3708C17.57 20.5963 17.0237 20.7175 16.4699 20.7273C15.916 20.7371 15.3658 20.6352 14.8522 20.4277C14.3386 20.2202 13.872 19.9114 13.4803 19.5197C13.0886 19.128 12.7798 18.6615 12.5723 18.1478C12.3649 17.6342 12.263 17.084 12.2727 16.5302C12.2825 15.9763 12.4037 15.4301 12.6292 14.9241C12.8547 14.4181 13.1797 13.9627 13.585 13.585M24.6675 24.6675C22.3171 26.4592 19.455 27.4517 16.5 27.5C6.875 27.5 1.375 16.5 1.375 16.5C3.08535 13.3126 5.45756 10.5279 8.3325 8.33253L24.6675 24.6675ZM13.6125 5.83003C14.559 5.60849 15.528 5.49775 16.5 5.50003C26.125 5.50003 31.625 16.5 31.625 16.5C30.7903 18.0615 29.795 19.5315 28.655 20.8863L13.6125 5.83003Z" stroke="black" stroke-width="2.5" stroke-linecap="round" stroke-linejoin="round"/>
<path d="M1.375 1.375L31.625 31.625" stroke="black" stroke-width="2.5" stroke-linecap="round" stroke-linejoin="round"/>
</svg>
