<svg width="66" height="39" viewBox="0 0 66 39" fill="none" xmlns="http://www.w3.org/2000/svg">
<path fill-rule="evenodd" clip-rule="evenodd" d="M39.9666 0.316297C38.8724 0.86972 38.781 1.19234 38.7817 4.49775C38.7821 7.07495 38.8093 7.38171 39.0754 7.81202C39.9194 9.17761 42.2049 9.38032 43.3722 8.19315L43.8708 7.686L43.9117 4.6015C43.95 1.70778 43.9338 1.48703 43.6504 1.03547C43.0243 0.0374755 41.2159 -0.315562 39.9666 0.316297ZM17.8568 0.389058C17.7836 0.529051 17.6395 1.00389 17.5368 1.4441C17.1641 3.04063 16.705 3.45144 15.1367 3.59172L14.2593 3.6703L13.2328 2.59358C12.6485 1.98079 12.1085 1.5368 11.9794 1.56314C11.8546 1.5886 11.2554 1.8421 10.6478 2.1266L9.543 2.64393L9.63093 3.2445C9.99119 5.70515 9.90164 6.12047 8.85331 6.8555C7.94247 7.49406 7.66748 7.49915 6.32704 6.90207C5.66685 6.60811 5.03499 6.40235 4.92272 6.44469C4.8106 6.48719 4.41626 6.90192 4.0467 7.36643C3.20048 8.42977 3.18396 8.80827 3.94048 9.79841C4.93099 11.095 4.93276 11.1026 4.49017 12.2151C3.93252 13.6171 3.78248 13.716 2.10376 13.7885C0.873527 13.8416 0.677315 13.8869 0.498363 14.1587C0.24432 14.5446 -0.0946985 16.3186 0.0261269 16.6292C0.0752536 16.7557 0.581717 17.0908 1.15162 17.3739C2.44735 18.0175 2.71054 18.3902 2.71054 19.581C2.71054 20.7458 2.41505 21.1516 1.10323 21.7896C0.558555 22.0545 0.0731882 22.3732 0.0246515 22.4977C-0.094846 22.8049 0.245648 24.5806 0.497331 24.9632C0.668315 25.2231 0.883559 25.2819 1.86919 25.338C3.29475 25.4195 3.8831 25.7195 4.35932 26.6079C4.90443 27.6246 4.82506 28.1622 3.96453 29.2836C3.55883 29.8121 3.22689 30.3711 3.22689 30.5255C3.22689 30.9241 4.52278 32.427 4.95975 32.5352C5.20185 32.5951 5.70846 32.4695 6.46188 32.1626C7.74419 31.6405 7.93288 31.6617 9.05188 32.4544C10.0135 33.1356 10.0745 33.3316 9.7907 34.8258C9.65734 35.5278 9.58549 36.1978 9.63093 36.3147C9.75633 36.637 11.8586 37.5759 12.2091 37.4662C12.371 37.4156 12.856 36.9452 13.2868 36.4212L14.0702 35.4682L15.0613 35.5232C16.5624 35.6064 17.2609 36.23 17.558 37.752C17.6519 38.2322 17.7932 38.7071 17.8721 38.807C18.0914 39.0845 20.5478 39.0543 20.8355 38.7705C20.9572 38.6505 21.1356 38.1756 21.2316 37.7155C21.5394 36.2431 21.887 35.8068 22.8928 35.6304C23.2333 35.5706 23.7443 35.4785 24.0283 35.4255C24.529 35.3322 24.5731 35.3628 25.4797 36.4315C25.9986 37.0432 26.5313 37.5337 26.6764 37.5337C27.0534 37.5337 28.8062 36.7253 29.0452 36.4413C29.2172 36.2367 29.2096 36.021 28.9938 34.9968C28.7027 33.6152 28.766 33.3255 29.5094 32.6398C30.5222 31.7055 31.2429 31.6267 32.5987 32.3017C33.1464 32.5744 33.5996 32.7105 33.7765 32.6552C34.1175 32.5484 35.5355 30.8622 35.5355 30.5635C35.5355 30.2395 34.6791 29.0029 34.1185 28.5174C33.449 27.9377 33.0601 27.8598 31.7426 28.0421L30.6388 28.1949L29.362 29.4253C27.9588 30.7777 26.4103 31.8369 25.0109 32.4016C18.8972 34.8685 12.2022 33.1832 8.2986 28.1947C6.36791 25.7275 4.94412 21.4482 5.1899 18.8525C5.52125 15.3546 6.86876 12.3055 9.10293 9.99792C11.6572 7.35974 14.515 6.02166 18.3956 5.64694C19.3434 5.55555 20.1643 5.44015 20.2197 5.39053C20.4092 5.22143 20.6339 0.526432 20.4621 0.322409C20.3575 0.197987 19.9127 0.134394 19.1471 0.134394C18.1942 0.134394 17.9666 0.17936 17.8568 0.389058ZM27.7165 4.42731V8.72023H28.823H29.9294V5.30045V1.88067H30.2983H30.6671V5.30045V8.72023H31.7735H32.88V4.42731V0.134394H30.2983H27.7165V4.42731ZM33.6176 4.41232V8.72023H34.7241H35.8306V7.06098V5.40173L36.7256 5.29928C37.3395 5.229 37.7452 5.09133 38.0165 4.86111C38.4009 4.53514 38.4123 4.47999 38.4123 2.93483C38.4123 0.442756 38.2133 0.258233 35.4249 0.164953L33.6176 0.104416V4.41232ZM44.5347 4.42731V8.72023H45.5674H46.6001L46.6168 6.35549L46.6333 3.99074L46.9013 5.73702C47.0489 6.69747 47.2114 7.76153 47.2626 8.10176L47.3559 8.72023H48.0692H48.7825L48.9596 7.44691C49.0572 6.74665 49.2224 5.61696 49.327 4.93664L49.5172 3.6997L49.5338 6.20996L49.5506 8.72023H50.5833H51.616V4.42222V0.124207L50.1039 0.165681L48.5917 0.207155L48.3797 1.91705C48.2632 2.85756 48.1252 3.62694 48.0733 3.62694C48.0214 3.62694 47.8961 2.98838 47.7949 2.20809C47.4984 -0.0793791 47.684 0.134394 45.994 0.134394H44.5347V4.42731ZM21.4692 1.91705C21.419 2.81754 21.2741 6.59924 21.1472 10.321C21.0204 14.0427 20.8823 17.366 20.8405 17.7063L20.7646 18.3247H19.6672H18.5698V19.1296C18.5698 20.0035 18.4161 20.174 17.7721 20.0147C17.4973 19.9466 17.3114 19.6736 16.9442 18.7984C16.6836 18.1777 16.4482 17.6457 16.4208 17.6162C16.3933 17.5866 15.6872 18.1246 14.8518 18.8118C13.401 20.0049 13.3262 20.0466 13.1911 19.7386C13.1132 19.5612 12.8649 19.002 12.639 18.4959L12.2286 17.5756L11.8217 17.8691C11.5978 18.0306 10.7508 18.7424 9.93941 19.4508L8.46413 20.7389L8.42445 23.9703L8.38476 27.2016H25.2057H42.0267V22.9087V18.6158H39.445H36.8632V19.3434V20.071H35.9043H34.9454V16.3555C34.9454 12.3202 34.8886 11.9714 34.0986 11.1577C33.5715 10.6148 33.0548 10.6381 32.4755 11.2305C31.8592 11.8606 31.6998 12.3301 31.6998 13.5137V14.5048L31.2343 14.5966C30.379 14.7654 30.372 14.789 30.372 17.5421V20.071H29.9294H29.4869V19.1251V18.1792H28.3953H27.3036L27.2127 16.3965C27.1627 15.416 27.0574 12.7803 26.9787 10.5393C26.9001 8.29821 26.7951 5.72799 26.7452 4.8275L26.6548 3.19037H26.0053C25.3947 3.19037 25.3562 3.21424 25.3587 3.59056C25.3658 4.61998 24.8915 17.0152 24.8241 17.5607L24.7478 18.1792H24.0931H23.4382L23.4363 17.1969C23.4351 16.6566 23.3032 12.8749 23.1432 8.79299C22.9831 4.71108 22.8512 1.12584 22.85 0.825626L22.8481 0.279916H22.2043H21.5605L21.4692 1.91705ZM41.698 4.33767C41.7393 7.23794 41.6523 7.76822 41.1957 7.39452C41.0386 7.26588 40.994 6.64115 40.994 4.56687C40.994 3.10262 41.0356 1.79772 41.0864 1.66718C41.1371 1.53665 41.2866 1.45021 41.4183 1.47524C41.628 1.51497 41.6629 1.87324 41.698 4.33767ZM36.2829 1.74024C36.5052 1.85767 36.5682 2.04787 36.5682 2.60144C36.5682 3.49931 36.4612 3.77246 36.1098 3.77246C35.8606 3.77246 35.8306 3.65488 35.8306 2.68104C35.8306 2.08076 35.8682 1.58962 35.9141 1.58962C35.9599 1.58962 36.1259 1.65743 36.2829 1.74024ZM62.0935 9.54927C60.9373 10.1402 60.6977 11.0457 60.7843 14.4986C60.8303 16.3382 60.8817 16.7246 61.1376 17.1555C61.5925 17.9212 62.2805 18.252 63.4183 18.252C64.4908 18.252 65.1603 17.9593 65.6895 17.2592C65.9819 16.8724 66 16.6716 66 13.8138C66 10.4796 65.9832 10.4108 64.9903 9.67966C64.4219 9.26099 62.8003 9.18794 62.0935 9.54927ZM36.7895 9.56441C35.9672 9.84789 35.5553 10.542 35.542 11.6671L35.5355 12.2128H36.6338H37.7322L37.7772 11.5215C37.815 10.9421 37.8698 10.8303 38.1172 10.8303C38.3812 10.8303 38.4169 10.9416 38.4557 11.8853L38.499 12.9404H37.9024H37.3058V13.5952V14.2501H37.9017H38.4976L38.4549 15.5234C38.416 16.6857 38.3866 16.7967 38.1172 16.7967C37.8583 16.7967 37.8169 16.6853 37.7782 15.8872L37.7344 14.9777H36.6349H35.5355L35.539 15.4507C35.5451 16.2385 35.8306 17.2145 36.1545 17.5548C36.8256 18.2594 38.8705 18.3397 39.8278 17.699C40.5615 17.2078 40.6752 16.6845 40.6875 13.7408C40.6969 11.5198 40.6593 11.0454 40.4405 10.6224C40.0043 9.77847 39.5077 9.52599 38.2178 9.49237C37.5945 9.47608 36.9518 9.50853 36.7895 9.56441ZM41.2891 13.8135V18.1792H42.3955H43.502V16.3602V14.5411H43.8708H44.2396V16.3602V18.1792H45.3461H46.4526V13.8135V9.44784H45.3461H44.2396V10.9758V12.5038H43.8708H43.502V10.9758V9.44784H42.3955H41.2891V13.8135ZM47.0773 13.7771L47.1164 18.1064L49.0712 18.147L51.0259 18.1876V17.3103V16.4329H50.2145H49.4031V15.487V14.5411H50.067H50.7309V13.668V12.7949H50.067H49.4031V11.9945V11.1941H50.1408H50.8784V10.321V9.44784H48.9583H47.0382L47.0773 13.7771ZM51.3556 13.7771L51.3947 18.1064H52.5012H53.6077L53.6491 16.4163L53.6904 14.7261L54.4266 14.6401C56.0472 14.4508 56.416 13.8882 56.2919 11.7945C56.1729 9.78589 55.7248 9.46967 52.9785 9.45599L51.3166 9.44784L51.3556 13.7771ZM56.632 13.8135V18.1792H57.7384H58.8449V14.6867V11.1941H59.7301H60.6152V10.321V9.44784H58.6236H56.632V13.8135ZM63.6794 13.7771C63.6455 16.3468 63.6065 16.7967 63.4183 16.7967C63.2305 16.7967 63.1909 16.3673 63.1568 13.9633C63.1347 12.405 63.1492 11.0461 63.189 10.9437C63.2288 10.8414 63.3644 10.7575 63.4904 10.7575C63.6912 10.7575 63.7144 11.1285 63.6794 13.7771ZM54.1873 11.1317C54.3269 11.2695 54.4191 11.6119 54.4191 11.993C54.4191 12.8129 54.3046 13.0859 53.9607 13.0859C53.7115 13.0859 53.6814 12.9683 53.6814 11.9945C53.6814 10.8834 53.7745 10.7247 54.1873 11.1317ZM31.6998 17.6699C31.6998 19.9739 31.6878 20.071 31.4047 20.071C31.1216 20.071 31.1097 19.9739 31.1097 17.6699C31.1097 15.3658 31.1216 15.2687 31.4047 15.2687C31.6878 15.2687 31.6998 15.3658 31.6998 17.6699ZM42.7644 22.9087V27.2016H43.7971H44.8298L44.8464 24.6913L44.8629 22.1811L45.2439 24.6913L45.6246 27.2016H46.3173C47.1229 27.2016 47.0306 27.44 47.4168 24.3639C47.7765 21.4992 47.9066 21.5463 47.9178 24.5458L47.9278 27.2016H48.8868H49.8457V22.9087V18.6158H48.3864C46.6886 18.6158 46.8764 18.3834 46.5911 20.8378C46.4909 21.6997 46.3817 22.378 46.3486 22.3452C46.3152 22.3125 46.1917 21.64 46.0742 20.8509C45.9566 20.0618 45.8223 19.236 45.7758 19.016L45.6915 18.6158H44.228H42.7644V22.9087ZM51.025 18.7977C51.0244 18.8978 50.7928 20.6822 50.5103 22.7632C50.2276 24.8441 49.9957 26.7295 49.9949 26.9531L49.9932 27.3594L51.1366 27.3169L52.2799 27.2744L52.3245 26.5104C52.3677 25.7714 52.3833 25.7464 52.8039 25.7464C53.2114 25.7464 53.2388 25.7823 53.2388 26.3165C53.2388 27.3032 53.293 27.3471 54.5086 27.3471C55.4988 27.3471 55.5993 27.3205 55.5993 27.0577C55.5993 26.8985 55.3337 25.0159 55.0093 22.8739C54.6848 20.7321 54.4192 18.8978 54.4192 18.7977C54.4191 18.6628 53.9813 18.6158 52.7225 18.6158C51.4641 18.6158 51.0256 18.6628 51.025 18.7977ZM55.7468 22.9838V27.3518L59.8407 27.3131L63.9346 27.2744L63.9737 22.9451L64.0128 18.6158H62.8304H61.6479V22.1083C61.6479 25.4932 61.6389 25.6009 61.3555 25.6009C61.0733 25.6009 61.0618 25.4802 61.0236 22.1447L60.9841 18.6885L59.8407 18.646L58.6974 18.6035V22.1122V25.6211L58.3654 25.5747L58.0335 25.5281L57.994 22.0719L57.9544 18.6158H56.8506H55.7468V22.9838ZM53.0116 22.7995L53.1134 24.1456H52.7176C52.3821 24.1456 52.3336 24.0956 52.4001 23.8182C52.4432 23.638 52.5251 22.9784 52.5819 22.3521C52.6388 21.7257 52.7359 21.2673 52.7976 21.3334C52.8593 21.3995 52.9556 22.0591 53.0116 22.7995ZM10.1607 21.89C10.1607 22.2295 10.1116 22.2538 9.42306 22.2538C8.73455 22.2538 8.68542 22.2295 8.68542 21.89C8.68542 21.5505 8.73455 21.5262 9.42306 21.5262C10.1116 21.5262 10.1607 21.5505 10.1607 21.89ZM12.2261 21.89C12.2261 22.2295 12.177 22.2538 11.4885 22.2538C10.7999 22.2538 10.7508 22.2295 10.7508 21.89C10.7508 21.5505 10.7999 21.5262 11.4885 21.5262C12.177 21.5262 12.2261 21.5505 12.2261 21.89ZM14.2915 21.89C14.2915 22.2295 14.2424 22.2538 13.5538 22.2538C12.8653 22.2538 12.8162 22.2295 12.8162 21.89C12.8162 21.5505 12.8653 21.5262 13.5538 21.5262C14.2424 21.5262 14.2915 21.5505 14.2915 21.89ZM16.3569 21.89C16.3569 22.2295 16.3077 22.2538 15.6192 22.2538C14.9307 22.2538 14.8816 22.2295 14.8816 21.89C14.8816 21.5505 14.9307 21.5262 15.6192 21.5262C16.3077 21.5262 16.3569 21.5505 16.3569 21.89ZM32.2899 22.2538C32.2899 22.6558 32.2489 22.6904 31.7735 22.6904C31.2982 22.6904 31.2572 22.6558 31.2572 22.2538C31.2572 21.8519 31.2982 21.8173 31.7735 21.8173C32.2489 21.8173 32.2899 21.8519 32.2899 22.2538ZM33.9127 22.2538C33.9127 22.6558 33.8717 22.6904 33.3963 22.6904C32.921 22.6904 32.88 22.6558 32.88 22.2538C32.88 21.8519 32.921 21.8173 33.3963 21.8173C33.8717 21.8173 33.9127 21.8519 33.9127 22.2538ZM35.388 22.2538C35.388 22.6558 35.347 22.6904 34.8716 22.6904C34.3963 22.6904 34.3553 22.6558 34.3553 22.2538C34.3553 21.8519 34.3963 21.8173 34.8716 21.8173C35.347 21.8173 35.388 21.8519 35.388 22.2538ZM10.1607 23.0542C10.1607 23.3937 10.1116 23.418 9.42306 23.418C8.73455 23.418 8.68542 23.3937 8.68542 23.0542C8.68542 22.7147 8.73455 22.6904 9.42306 22.6904C10.1116 22.6904 10.1607 22.7147 10.1607 23.0542ZM12.2261 23.0542C12.2261 23.3937 12.177 23.418 11.4885 23.418C10.7999 23.418 10.7508 23.3937 10.7508 23.0542C10.7508 22.7147 10.7999 22.6904 11.4885 22.6904C12.177 22.6904 12.2261 22.7147 12.2261 23.0542ZM14.2915 23.0542C14.2915 23.3937 14.2424 23.418 13.5538 23.418C12.8653 23.418 12.8162 23.3937 12.8162 23.0542C12.8162 22.7147 12.8653 22.6904 13.5538 22.6904C14.2424 22.6904 14.2915 22.7147 14.2915 23.0542ZM16.4778 23.0906C16.5218 23.3965 16.4709 23.418 15.7033 23.418C14.9207 23.418 14.8816 23.4004 14.8816 23.0466C14.8816 22.69 14.9124 22.677 15.6561 22.7192C16.3309 22.7575 16.4367 22.8054 16.4778 23.0906Z" fill="white"/>
</svg>
