<svg width="19" height="19" viewBox="0 0 19 19" fill="none" xmlns="http://www.w3.org/2000/svg">
<path d="M12.6888 2.1741C9.79032 -0.724375 5.07284 -0.724375 2.17436 2.1741C-0.723485 5.0732 -0.723485 9.79006 2.17436 12.6892C4.75553 15.2697 8.77557 15.5462 11.6722 13.5311C11.7331 13.8195 11.8726 14.0947 12.0969 14.319L16.318 18.5402C16.9331 19.154 17.9272 19.154 18.5392 18.5402C19.1537 17.9256 19.1537 16.9316 18.5392 16.319L14.3181 12.0967C14.095 11.8742 13.8192 11.7341 13.5308 11.6732C15.5471 8.77594 15.2706 4.75653 12.6888 2.1741ZM11.3561 11.3565C9.19215 13.5204 5.67038 13.5204 3.50704 11.3565C1.34434 9.19252 1.34434 5.67137 3.50704 3.50741C5.67038 1.34408 9.19215 1.34408 11.3561 3.50741C13.5201 5.67137 13.5201 9.19252 11.3561 11.3565Z" fill="black"/>
</svg>
