<svg width="23" height="23" viewBox="0 0 23 23" fill="none" xmlns="http://www.w3.org/2000/svg">
<path d="M20.9785 3.41406H2.02148C0.904592 3.41406 0 4.32427 0 5.43555V17.5645C0 18.6823 0.91124 19.5859 2.02148 19.5859H20.9785C22.0861 19.5859 23 18.6862 23 17.5645V5.43555C23 4.32625 22.099 3.41406 20.9785 3.41406ZM20.6954 4.76172C20.2824 5.17253 13.1748 12.2427 12.9294 12.4868C12.5476 12.8686 12.04 13.0789 11.5 13.0789C10.96 13.0789 10.4524 12.8686 10.0693 12.4855C9.90428 12.3214 2.87513 5.32926 2.30458 4.76172H20.6954ZM1.34766 17.2902V5.71069L7.17124 11.5036L1.34766 17.2902ZM2.30544 18.2383L8.12673 12.454L9.11766 13.4397C9.75402 14.0761 10.6001 14.4265 11.5 14.4265C12.3999 14.4265 13.246 14.0761 13.8811 13.441L14.8733 12.454L20.6946 18.2383H2.30544ZM21.6523 17.2902L15.8288 11.5036L21.6523 5.71069V17.2902Z" fill="black"/>
</svg>
